<svg width="22" height="22" viewBox="0 0 22 22" fill="none" xmlns="http://www.w3.org/2000/svg">
<circle cx="11" cy="11" r="11" fill="#38B000"/>
<path d="M15.95 9.35H12.65V6.05C12.65 5.61239 12.4762 5.19271 12.1668 4.88328C11.8573 4.57384 11.4376 4.4 11 4.4C10.5624 4.4 10.1427 4.57384 9.8333 4.88328C9.52386 5.19271 9.35002 5.61239 9.35002 6.05L9.4086 9.35H6.05002C5.61242 9.35 5.19273 9.52384 4.8833 9.83328C4.57386 10.1427 4.40002 10.5624 4.40002 11C4.40002 11.4376 4.57386 11.8573 4.8833 12.1667C5.19273 12.4762 5.61242 12.65 6.05002 12.65L9.4086 12.5914L9.35002 15.95C9.35002 16.3876 9.52386 16.8073 9.8333 17.1167C10.1427 17.4262 10.5624 17.6 11 17.6C11.4376 17.6 11.8573 17.4262 12.1668 17.1167C12.4762 16.8073 12.65 16.3876 12.65 15.95V12.5914L15.95 12.65C16.3876 12.65 16.8073 12.4762 17.1168 12.1667C17.4262 11.8573 17.6 11.4376 17.6 11C17.6 10.5624 17.4262 10.1427 17.1168 9.83328C16.8073 9.52384 16.3876 9.35 15.95 9.35Z" fill="white"/>
</svg>
