<svg width="35" height="35" viewBox="0 0 35 35" fill="none" xmlns="http://www.w3.org/2000/svg">
<path d="M26.25 13.125L25.025 25.3721C24.8398 27.2285 24.7479 28.156 24.325 28.8575C23.9541 29.475 23.4086 29.9687 22.7573 30.2765C22.0179 30.625 21.0875 30.625 19.2208 30.625H15.7792C13.914 30.625 12.9821 30.625 12.2427 30.275C11.5909 29.9675 11.0449 29.4737 10.6735 28.856C10.2535 28.156 10.1602 27.2285 9.97354 25.3721L8.75 13.125M19.6875 22.6042V15.3125M15.3125 22.6042V15.3125M6.5625 9.47917H13.2927M13.2927 9.47917L13.8556 5.5825C14.019 4.87375 14.6081 4.375 15.2848 4.375H19.7152C20.3919 4.375 20.9796 4.87375 21.1444 5.5825L21.7073 9.47917M13.2927 9.47917H21.7073M21.7073 9.47917H28.4375" stroke="#38B000" stroke-linecap="round" stroke-linejoin="round"/>
</svg>
