<svg width="35" height="35" viewBox="0 0 35 35" fill="none" xmlns="http://www.w3.org/2000/svg">
<path d="M12.8333 29.4569C12.4637 29.8271 12.0247 30.1208 11.5416 30.3212C11.0584 30.5217 10.5404 30.6249 10.0173 30.6251H4.375V25.0192C4.375 23.9634 4.795 22.9499 5.54167 22.2032M12.8333 29.4569L5.54167 22.2032M12.8333 29.4569L27.3788 14.9057M5.54167 22.2032L20.1017 7.62714L22.1813 5.54464C22.5513 5.17402 22.9908 4.87996 23.4746 4.67929C23.9583 4.47862 24.4769 4.37526 25.0006 4.37512C25.5244 4.37499 26.043 4.47808 26.5269 4.6785C27.0108 4.87892 27.4504 5.17275 27.8206 5.54318L29.4627 7.18672C30.2101 7.93417 30.63 8.94791 30.63 10.005C30.63 11.062 30.2101 12.0757 29.4627 12.8232L27.3788 14.9057M27.3788 14.9057L20.1002 7.62714" stroke="#004B23" stroke-linecap="round" stroke-linejoin="round"/>
</svg>
