<svg width="230" height="70" viewBox="0 0 230 70" fill="none" xmlns="http://www.w3.org/2000/svg">
<path d="M24 8.5C35.005 8.5 44.5 20.0073 44.5 35C44.5 49.9927 35.005 61.5 24 61.5C12.995 61.5 3.5 49.9927 3.5 35C3.5 20.0073 12.995 8.5 24 8.5Z" stroke="#004B23" stroke-width="3"/>
<path d="M21.4275 42L14.7775 35.35L16.44 33.6875L21.4275 38.675L32.1316 27.9708L33.7941 29.6333L21.4275 42Z" fill="#38B000"/>
<path d="M71.225 27.11C70.805 27.39 70.2333 27.705 69.51 28.055C68.7867 28.405 67.935 28.6967 66.955 28.93C65.9983 29.1633 64.9483 29.28 63.805 29.28C61.845 29.2567 60.0717 28.9067 58.485 28.23C56.9217 27.5533 55.5917 26.6317 54.495 25.465C53.3983 24.2983 52.5467 22.9567 51.94 21.44C51.3567 19.9 51.065 18.2667 51.065 16.54C51.065 14.65 51.3683 12.9117 51.975 11.325C52.605 9.715 53.48 8.32667 54.6 7.16C55.72 5.97 57.0383 5.04833 58.555 4.395C60.095 3.74167 61.775 3.415 63.595 3.415C65.1117 3.415 66.4883 3.625 67.725 4.045C68.9617 4.44167 70.0233 4.92 70.91 5.48L69.545 8.63C68.845 8.16333 67.9933 7.72 66.99 7.3C66.01 6.88 64.9133 6.67 63.7 6.67C62.4633 6.67 61.2967 6.915 60.2 7.405C59.1033 7.895 58.135 8.58333 57.295 9.47C56.455 10.3567 55.79 11.395 55.3 12.585C54.8333 13.7517 54.6 15.0117 54.6 16.365C54.6 17.7417 54.81 19.025 55.23 20.215C55.6733 21.3817 56.2917 22.3967 57.085 23.26C57.9017 24.1233 58.8817 24.8 60.025 25.29C61.1683 25.78 62.4517 26.025 63.875 26.025C65.1583 26.025 66.3017 25.8267 67.305 25.43C68.3083 25.0333 69.1367 24.59 69.79 24.1L71.225 27.11ZM82.8568 29.35C81.2001 29.35 79.7768 29.0233 78.5868 28.37C77.3968 27.6933 76.4751 26.7833 75.8218 25.64C75.1918 24.4733 74.8768 23.1433 74.8768 21.65C74.8768 20.2267 75.2384 18.9317 75.9618 17.765C76.6851 16.5983 77.6534 15.665 78.8668 14.965C80.0801 14.265 81.4334 13.915 82.9268 13.915C84.8401 13.915 86.4268 14.475 87.6868 15.595C88.9468 16.715 89.7984 18.255 90.2418 20.215L78.3068 24.415L77.5368 22.49L87.3368 18.92L86.6368 19.375C86.3568 18.605 85.8901 17.94 85.2368 17.38C84.5834 16.7967 83.7318 16.505 82.6818 16.505C81.7951 16.505 81.0018 16.7267 80.3018 17.17C79.6018 17.59 79.0534 18.1733 78.6568 18.92C78.2601 19.6667 78.0618 20.5183 78.0618 21.475C78.0618 22.4783 78.2718 23.365 78.6918 24.135C79.1118 24.8817 79.6834 25.4767 80.4068 25.92C81.1534 26.34 81.9934 26.55 82.9268 26.55C83.5568 26.55 84.1634 26.4333 84.7468 26.2C85.3534 25.9667 85.9134 25.6633 86.4268 25.29L87.9318 27.705C87.2084 28.195 86.3918 28.5917 85.4818 28.895C84.5951 29.1983 83.7201 29.35 82.8568 29.35ZM97.2254 14.51L97.5404 18.71L97.3654 18.15C97.7387 17.2633 98.2754 16.5167 98.9754 15.91C99.6987 15.28 100.445 14.8017 101.215 14.475C102.009 14.125 102.697 13.95 103.28 13.95L103.105 17.17C102.009 17.1 101.04 17.31 100.2 17.8C99.3837 18.29 98.7304 18.9433 98.2404 19.76C97.7737 20.5767 97.5404 21.4517 97.5404 22.385V29H94.3204V14.51H97.2254ZM105.604 21.615C105.604 20.1683 105.943 18.8617 106.619 17.695C107.319 16.5283 108.276 15.6067 109.489 14.93C110.703 14.2533 112.079 13.915 113.619 13.915C115.206 13.915 116.594 14.2533 117.784 14.93C118.974 15.6067 119.896 16.5283 120.549 17.695C121.203 18.8617 121.529 20.1683 121.529 21.615C121.529 23.0617 121.203 24.38 120.549 25.57C119.896 26.7367 118.963 27.6583 117.749 28.335C116.559 29.0117 115.171 29.35 113.584 29.35C112.044 29.35 110.668 29.035 109.454 28.405C108.264 27.7517 107.319 26.8533 106.619 25.71C105.943 24.5433 105.604 23.1783 105.604 21.615ZM108.859 21.65C108.859 22.5833 109.069 23.435 109.489 24.205C109.909 24.9517 110.469 25.5467 111.169 25.99C111.893 26.4333 112.686 26.655 113.549 26.655C114.459 26.655 115.264 26.4333 115.964 25.99C116.688 25.5467 117.248 24.9517 117.644 24.205C118.041 23.435 118.239 22.5833 118.239 21.65C118.239 20.7167 118.041 19.8767 117.644 19.13C117.248 18.36 116.688 17.7533 115.964 17.31C115.264 16.8433 114.459 16.61 113.549 16.61C112.663 16.61 111.858 16.8433 111.134 17.31C110.434 17.7767 109.874 18.395 109.454 19.165C109.058 19.9117 108.859 20.74 108.859 21.65ZM59.395 38.695C61.2383 38.695 62.8133 39.01 64.12 39.64C65.4267 40.2467 66.43 41.1333 67.13 42.3C67.8533 43.4667 68.215 44.8783 68.215 46.535C68.215 47.5383 68.0633 48.53 67.76 49.51C67.4567 50.4667 66.9667 51.3417 66.29 52.135C65.6367 52.905 64.7733 53.5233 63.7 53.99C62.6267 54.4567 61.32 54.69 59.78 54.69H56.035V64H52.64V38.695H59.395ZM59.745 51.435C60.7483 51.435 61.5767 51.2717 62.23 50.945C62.8833 50.6183 63.3967 50.21 63.77 49.72C64.1433 49.2067 64.4117 48.67 64.575 48.11C64.7383 47.55 64.82 47.0483 64.82 46.605C64.82 46.0917 64.7383 45.5667 64.575 45.03C64.4117 44.47 64.1317 43.9683 63.735 43.525C63.3617 43.0583 62.86 42.685 62.23 42.405C61.6233 42.1017 60.865 41.95 59.955 41.95H56.035V51.435H59.745ZM79.3704 64.35C77.7138 64.35 76.2904 64.0233 75.1004 63.37C73.9104 62.6933 72.9888 61.7833 72.3354 60.64C71.7054 59.4733 71.3904 58.1433 71.3904 56.65C71.3904 55.2267 71.7521 53.9317 72.4754 52.765C73.1988 51.5983 74.1671 50.665 75.3804 49.965C76.5938 49.265 77.9471 48.915 79.4404 48.915C81.3538 48.915 82.9404 49.475 84.2004 50.595C85.4604 51.715 86.3121 53.255 86.7554 55.215L74.8204 59.415L74.0504 57.49L83.8504 53.92L83.1504 54.375C82.8704 53.605 82.4038 52.94 81.7504 52.38C81.0971 51.7967 80.2454 51.505 79.1954 51.505C78.3088 51.505 77.5154 51.7267 76.8154 52.17C76.1154 52.59 75.5671 53.1733 75.1704 53.92C74.7738 54.6667 74.5754 55.5183 74.5754 56.475C74.5754 57.4783 74.7854 58.365 75.2054 59.135C75.6254 59.8817 76.1971 60.4767 76.9204 60.92C77.6671 61.34 78.5071 61.55 79.4404 61.55C80.0704 61.55 80.6771 61.4333 81.2604 61.2C81.8671 60.9667 82.4271 60.6633 82.9404 60.29L84.4454 62.705C83.7221 63.195 82.9054 63.5917 81.9954 63.895C81.1088 64.1983 80.2338 64.35 79.3704 64.35ZM93.739 49.51L94.019 53.045L93.879 52.485C94.3457 51.4117 95.104 50.56 96.154 49.93C97.204 49.2767 98.4174 48.95 99.794 48.95C101.171 48.95 102.291 49.3583 103.154 50.175C104.041 50.9683 104.496 52.0067 104.519 53.29V64H101.229V54.445C101.206 53.6517 100.972 53.01 100.529 52.52C100.109 52.0067 99.444 51.75 98.534 51.75C97.694 51.75 96.9357 51.9833 96.259 52.45C95.5824 52.9167 95.0457 53.5583 94.649 54.375C94.2757 55.1917 94.089 56.1367 94.089 57.21V64H90.834V49.51H93.739ZM116.06 64.35C114.73 64.35 113.516 64.035 112.42 63.405C111.346 62.7517 110.495 61.8417 109.865 60.675C109.235 59.485 108.92 58.12 108.92 56.58C108.92 54.97 109.246 53.5933 109.9 52.45C110.576 51.3067 111.486 50.4317 112.63 49.825C113.773 49.2183 115.056 48.915 116.48 48.915C117.623 48.915 118.708 49.16 119.735 49.65C120.785 50.14 121.601 50.8167 122.185 51.68L122.045 52.835V36.91H125.265V64H122.01V60.395L122.36 61.305C121.683 62.1917 120.808 62.9267 119.735 63.51C118.661 64.07 117.436 64.35 116.06 64.35ZM117.075 61.585C117.938 61.585 118.708 61.4333 119.385 61.13C120.061 60.8033 120.621 60.36 121.065 59.8C121.508 59.24 121.823 58.575 122.01 57.805V55.075C121.823 54.375 121.485 53.7683 120.995 53.255C120.528 52.7183 119.956 52.2983 119.28 51.995C118.626 51.6683 117.891 51.505 117.075 51.505C116.188 51.505 115.371 51.7267 114.625 52.17C113.901 52.59 113.318 53.1733 112.875 53.92C112.431 54.6667 112.21 55.53 112.21 56.51C112.21 57.4667 112.431 58.33 112.875 59.1C113.318 59.8467 113.913 60.4533 114.66 60.92C115.406 61.3633 116.211 61.585 117.075 61.585ZM130.927 49.51H134.182V64H130.927V49.51ZM130.682 44.26C130.682 43.7467 130.88 43.315 131.277 42.965C131.697 42.615 132.152 42.44 132.642 42.44C133.132 42.44 133.563 42.615 133.937 42.965C134.333 43.315 134.532 43.7467 134.532 44.26C134.532 44.7967 134.333 45.24 133.937 45.59C133.563 45.9167 133.132 46.08 132.642 46.08C132.152 46.08 131.697 45.905 131.277 45.555C130.88 45.205 130.682 44.7733 130.682 44.26ZM146.534 64.35C144.877 64.35 143.454 64.0233 142.264 63.37C141.074 62.6933 140.152 61.7833 139.499 60.64C138.869 59.4733 138.554 58.1433 138.554 56.65C138.554 55.2267 138.915 53.9317 139.639 52.765C140.362 51.5983 141.33 50.665 142.544 49.965C143.757 49.265 145.11 48.915 146.604 48.915C148.517 48.915 150.104 49.475 151.364 50.595C152.624 51.715 153.475 53.255 153.919 55.215L141.984 59.415L141.214 57.49L151.014 53.92L150.314 54.375C150.034 53.605 149.567 52.94 148.914 52.38C148.26 51.7967 147.409 51.505 146.359 51.505C145.472 51.505 144.679 51.7267 143.979 52.17C143.279 52.59 142.73 53.1733 142.334 53.92C141.937 54.6667 141.739 55.5183 141.739 56.475C141.739 57.4783 141.949 58.365 142.369 59.135C142.789 59.8817 143.36 60.4767 144.084 60.92C144.83 61.34 145.67 61.55 146.604 61.55C147.234 61.55 147.84 61.4333 148.424 61.2C149.03 60.9667 149.59 60.6633 150.104 60.29L151.609 62.705C150.885 63.195 150.069 63.5917 149.159 63.895C148.272 64.1983 147.397 64.35 146.534 64.35ZM160.902 49.51L161.182 53.045L161.042 52.485C161.509 51.4117 162.267 50.56 163.317 49.93C164.367 49.2767 165.58 48.95 166.957 48.95C168.334 48.95 169.454 49.3583 170.317 50.175C171.204 50.9683 171.659 52.0067 171.682 53.29V64H168.392V54.445C168.369 53.6517 168.135 53.01 167.692 52.52C167.272 52.0067 166.607 51.75 165.697 51.75C164.857 51.75 164.099 51.9833 163.422 52.45C162.745 52.9167 162.209 53.5583 161.812 54.375C161.439 55.1917 161.252 56.1367 161.252 57.21V64H157.997V49.51H160.902ZM178.743 43.14H181.998V49.58H185.988V52.135H181.998V64H178.743V52.135H176.083V49.58H178.743V43.14ZM196.641 64.35C194.984 64.35 193.561 64.0233 192.371 63.37C191.181 62.6933 190.259 61.7833 189.606 60.64C188.976 59.4733 188.661 58.1433 188.661 56.65C188.661 55.2267 189.023 53.9317 189.746 52.765C190.469 51.5983 191.438 50.665 192.651 49.965C193.864 49.265 195.218 48.915 196.711 48.915C198.624 48.915 200.211 49.475 201.471 50.595C202.731 51.715 203.583 53.255 204.026 55.215L192.091 59.415L191.321 57.49L201.121 53.92L200.421 54.375C200.141 53.605 199.674 52.94 199.021 52.38C198.368 51.7967 197.516 51.505 196.466 51.505C195.579 51.505 194.786 51.7267 194.086 52.17C193.386 52.59 192.838 53.1733 192.441 53.92C192.044 54.6667 191.846 55.5183 191.846 56.475C191.846 57.4783 192.056 58.365 192.476 59.135C192.896 59.8817 193.468 60.4767 194.191 60.92C194.938 61.34 195.778 61.55 196.711 61.55C197.341 61.55 197.948 61.4333 198.531 61.2C199.138 60.9667 199.698 60.6633 200.211 60.29L201.716 62.705C200.993 63.195 200.176 63.5917 199.266 63.895C198.379 64.1983 197.504 64.35 196.641 64.35ZM212.165 64.28C211.138 64.28 210.135 64.105 209.155 63.755C208.198 63.3817 207.405 62.8333 206.775 62.11L208.14 60.22C208.746 60.8033 209.365 61.2467 209.995 61.55C210.648 61.83 211.29 61.97 211.92 61.97C212.386 61.97 212.818 61.9117 213.215 61.795C213.611 61.6783 213.926 61.4917 214.16 61.235C214.416 60.955 214.545 60.5817 214.545 60.115C214.545 59.6017 214.37 59.1933 214.02 58.89C213.693 58.5867 213.261 58.3417 212.725 58.155C212.211 57.9683 211.663 57.7933 211.08 57.63C209.89 57.2333 208.98 56.685 208.35 55.985C207.72 55.285 207.405 54.4333 207.405 53.43C207.405 52.66 207.591 51.9483 207.965 51.295C208.361 50.6183 208.933 50.07 209.68 49.65C210.45 49.23 211.395 49.02 212.515 49.02C213.518 49.02 214.416 49.1483 215.21 49.405C216.003 49.6383 216.75 50.035 217.45 50.595L216.155 52.625C215.735 52.1817 215.233 51.855 214.65 51.645C214.066 51.435 213.541 51.3183 213.075 51.295C212.678 51.2717 212.293 51.33 211.92 51.47C211.57 51.61 211.278 51.8083 211.045 52.065C210.811 52.3217 210.695 52.625 210.695 52.975C210.695 53.465 210.858 53.8617 211.185 54.165C211.511 54.4683 211.931 54.7133 212.445 54.9C212.981 55.0633 213.506 55.2383 214.02 55.425C214.743 55.635 215.385 55.915 215.945 56.265C216.505 56.615 216.948 57.0467 217.275 57.56C217.625 58.0733 217.8 58.715 217.8 59.485C217.8 60.3483 217.59 61.1533 217.17 61.9C216.773 62.6233 216.155 63.2067 215.315 63.65C214.498 64.07 213.448 64.28 212.165 64.28Z" fill="#004B23"/>
</svg>
