<svg width="189" height="45" viewBox="0 0 189 45" fill="none" xmlns="http://www.w3.org/2000/svg">
<path d="M48.7 27.92C48.46 28.08 48.1333 28.26 47.72 28.46C47.3067 28.66 46.82 28.8267 46.26 28.96C45.7133 29.0933 45.1133 29.16 44.46 29.16C43.34 29.1467 42.3267 28.9467 41.42 28.56C40.5267 28.1733 39.7667 27.6467 39.14 26.98C38.5133 26.3133 38.0267 25.5467 37.68 24.68C37.3467 23.8 37.18 22.8667 37.18 21.88C37.18 20.8 37.3533 19.8067 37.7 18.9C38.06 17.98 38.56 17.1867 39.2 16.52C39.84 15.84 40.5933 15.3133 41.46 14.94C42.34 14.5667 43.3 14.38 44.34 14.38C45.2067 14.38 45.9933 14.5 46.7 14.74C47.4067 14.9667 48.0133 15.24 48.52 15.56L47.74 17.36C47.34 17.0933 46.8533 16.84 46.28 16.6C45.72 16.36 45.0933 16.24 44.4 16.24C43.6933 16.24 43.0267 16.38 42.4 16.66C41.7733 16.94 41.22 17.3333 40.74 17.84C40.26 18.3467 39.88 18.94 39.6 19.62C39.3333 20.2867 39.2 21.0067 39.2 21.78C39.2 22.5667 39.32 23.3 39.56 23.98C39.8133 24.6467 40.1667 25.2267 40.62 25.72C41.0867 26.2133 41.6467 26.6 42.3 26.88C42.9533 27.16 43.6867 27.3 44.5 27.3C45.2333 27.3 45.8867 27.1867 46.46 26.96C47.0333 26.7333 47.5067 26.48 47.88 26.2L48.7 27.92ZM55.3467 29.2C54.4001 29.2 53.5867 29.0133 52.9067 28.64C52.2267 28.2533 51.7001 27.7333 51.3267 27.08C50.9667 26.4133 50.7867 25.6533 50.7867 24.8C50.7867 23.9867 50.9934 23.2467 51.4067 22.58C51.8201 21.9133 52.3734 21.38 53.0667 20.98C53.7601 20.58 54.5334 20.38 55.3867 20.38C56.4801 20.38 57.3867 20.7 58.1067 21.34C58.8267 21.98 59.3134 22.86 59.5667 23.98L52.7467 26.38L52.3067 25.28L57.9067 23.24L57.5067 23.5C57.3467 23.06 57.0801 22.68 56.7067 22.36C56.3334 22.0267 55.8467 21.86 55.2467 21.86C54.7401 21.86 54.2867 21.9867 53.8867 22.24C53.4867 22.48 53.1734 22.8133 52.9467 23.24C52.7201 23.6667 52.6067 24.1533 52.6067 24.7C52.6067 25.2733 52.7267 25.78 52.9667 26.22C53.2067 26.6467 53.5334 26.9867 53.9467 27.24C54.3734 27.48 54.8534 27.6 55.3867 27.6C55.7467 27.6 56.0934 27.5333 56.4267 27.4C56.7734 27.2667 57.0934 27.0933 57.3867 26.88L58.2467 28.26C57.8334 28.54 57.3667 28.7667 56.8467 28.94C56.3401 29.1133 55.8401 29.2 55.3467 29.2ZM63.5573 20.72L63.7373 23.12L63.6373 22.8C63.8507 22.2933 64.1573 21.8667 64.5573 21.52C64.9707 21.16 65.3973 20.8867 65.8373 20.7C66.2907 20.5 66.684 20.4 67.0173 20.4L66.9173 22.24C66.2907 22.2 65.7373 22.32 65.2573 22.6C64.7907 22.88 64.4173 23.2533 64.1373 23.72C63.8707 24.1867 63.7373 24.6867 63.7373 25.22V29H61.8973V20.72H63.5573ZM68.3453 24.78C68.3453 23.9533 68.5386 23.2067 68.9253 22.54C69.3253 21.8733 69.872 21.3467 70.5653 20.96C71.2586 20.5733 72.0453 20.38 72.9253 20.38C73.832 20.38 74.6253 20.5733 75.3053 20.96C75.9853 21.3467 76.512 21.8733 76.8853 22.54C77.2586 23.2067 77.4453 23.9533 77.4453 24.78C77.4453 25.6067 77.2586 26.36 76.8853 27.04C76.512 27.7067 75.9786 28.2333 75.2853 28.62C74.6053 29.0067 73.812 29.2 72.9053 29.2C72.0253 29.2 71.2386 29.02 70.5453 28.66C69.8653 28.2867 69.3253 27.7733 68.9253 27.12C68.5386 26.4533 68.3453 25.6733 68.3453 24.78ZM70.2053 24.8C70.2053 25.3333 70.3253 25.82 70.5653 26.26C70.8053 26.6867 71.1253 27.0267 71.5253 27.28C71.9386 27.5333 72.392 27.66 72.8853 27.66C73.4053 27.66 73.8653 27.5333 74.2653 27.28C74.6786 27.0267 74.9986 26.6867 75.2253 26.26C75.452 25.82 75.5653 25.3333 75.5653 24.8C75.5653 24.2667 75.452 23.7867 75.2253 23.36C74.9986 22.92 74.6786 22.5733 74.2653 22.32C73.8653 22.0533 73.4053 21.92 72.8853 21.92C72.3786 21.92 71.9186 22.0533 71.5053 22.32C71.1053 22.5867 70.7853 22.94 70.5453 23.38C70.3186 23.8067 70.2053 24.28 70.2053 24.8ZM84.2838 14.54C85.3371 14.54 86.2371 14.72 86.9838 15.08C87.7304 15.4267 88.3038 15.9333 88.7038 16.6C89.1171 17.2667 89.3238 18.0733 89.3238 19.02C89.3238 19.5933 89.2371 20.16 89.0638 20.72C88.8904 21.2667 88.6104 21.7667 88.2238 22.22C87.8504 22.66 87.3571 23.0133 86.7438 23.28C86.1304 23.5467 85.3838 23.68 84.5038 23.68H82.3638V29H80.4238V14.54H84.2838ZM84.4838 21.82C85.0571 21.82 85.5304 21.7267 85.9038 21.54C86.2771 21.3533 86.5704 21.12 86.7838 20.84C86.9971 20.5467 87.1504 20.24 87.2438 19.92C87.3371 19.6 87.3838 19.3133 87.3838 19.06C87.3838 18.7667 87.3371 18.4667 87.2438 18.16C87.1504 17.84 86.9904 17.5533 86.7638 17.3C86.5504 17.0333 86.2638 16.82 85.9038 16.66C85.5571 16.4867 85.1238 16.4 84.6038 16.4H82.3638V21.82H84.4838ZM95.6983 29.2C94.7516 29.2 93.9383 29.0133 93.2583 28.64C92.5783 28.2533 92.0516 27.7333 91.6783 27.08C91.3183 26.4133 91.1383 25.6533 91.1383 24.8C91.1383 23.9867 91.3449 23.2467 91.7583 22.58C92.1716 21.9133 92.7249 21.38 93.4183 20.98C94.1116 20.58 94.8849 20.38 95.7383 20.38C96.8316 20.38 97.7383 20.7 98.4583 21.34C99.1783 21.98 99.6649 22.86 99.9183 23.98L93.0983 26.38L92.6583 25.28L98.2583 23.24L97.8583 23.5C97.6983 23.06 97.4316 22.68 97.0583 22.36C96.6849 22.0267 96.1983 21.86 95.5983 21.86C95.0916 21.86 94.6383 21.9867 94.2383 22.24C93.8383 22.48 93.5249 22.8133 93.2983 23.24C93.0716 23.6667 92.9583 24.1533 92.9583 24.7C92.9583 25.2733 93.0783 25.78 93.3183 26.22C93.5583 26.6467 93.8849 26.9867 94.2983 27.24C94.7249 27.48 95.2049 27.6 95.7383 27.6C96.0983 27.6 96.4449 27.5333 96.7783 27.4C97.1249 27.2667 97.4449 27.0933 97.7383 26.88L98.5983 28.26C98.1849 28.54 97.7183 28.7667 97.1983 28.94C96.6916 29.1133 96.1916 29.2 95.6983 29.2ZM103.909 20.72L104.069 22.74L103.989 22.42C104.256 21.8067 104.689 21.32 105.289 20.96C105.889 20.5867 106.582 20.4 107.369 20.4C108.156 20.4 108.796 20.6333 109.289 21.1C109.796 21.5533 110.056 22.1467 110.069 22.88V29H108.189V23.54C108.176 23.0867 108.042 22.72 107.789 22.44C107.549 22.1467 107.169 22 106.649 22C106.169 22 105.736 22.1333 105.349 22.4C104.962 22.6667 104.656 23.0333 104.429 23.5C104.216 23.9667 104.109 24.5067 104.109 25.12V29H102.249V20.72H103.909ZM116.664 29.2C115.904 29.2 115.21 29.02 114.584 28.66C113.97 28.2867 113.484 27.7667 113.124 27.1C112.764 26.42 112.584 25.64 112.584 24.76C112.584 23.84 112.77 23.0533 113.144 22.4C113.53 21.7467 114.05 21.2467 114.704 20.9C115.357 20.5533 116.09 20.38 116.904 20.38C117.557 20.38 118.177 20.52 118.764 20.8C119.364 21.08 119.83 21.4667 120.164 21.96L120.084 22.62V13.52H121.924V29H120.064V26.94L120.264 27.46C119.877 27.9667 119.377 28.3867 118.764 28.72C118.15 29.04 117.45 29.2 116.664 29.2ZM117.244 27.62C117.737 27.62 118.177 27.5333 118.564 27.36C118.95 27.1733 119.27 26.92 119.524 26.6C119.777 26.28 119.957 25.9 120.064 25.46V23.9C119.957 23.5 119.764 23.1533 119.484 22.86C119.217 22.5533 118.89 22.3133 118.504 22.14C118.13 21.9533 117.71 21.86 117.244 21.86C116.737 21.86 116.27 21.9867 115.844 22.24C115.43 22.48 115.097 22.8133 114.844 23.24C114.59 23.6667 114.464 24.16 114.464 24.72C114.464 25.2667 114.59 25.76 114.844 26.2C115.097 26.6267 115.437 26.9733 115.864 27.24C116.29 27.4933 116.75 27.62 117.244 27.62ZM125.159 20.72H127.019V29H125.159V20.72ZM125.019 17.72C125.019 17.4267 125.132 17.18 125.359 16.98C125.599 16.78 125.859 16.68 126.139 16.68C126.419 16.68 126.666 16.78 126.879 16.98C127.106 17.18 127.219 17.4267 127.219 17.72C127.219 18.0267 127.106 18.28 126.879 18.48C126.666 18.6667 126.419 18.76 126.139 18.76C125.859 18.76 125.599 18.66 125.359 18.46C125.132 18.26 125.019 18.0133 125.019 17.72ZM134.077 29.2C133.131 29.2 132.317 29.0133 131.637 28.64C130.957 28.2533 130.431 27.7333 130.057 27.08C129.697 26.4133 129.517 25.6533 129.517 24.8C129.517 23.9867 129.724 23.2467 130.137 22.58C130.551 21.9133 131.104 21.38 131.797 20.98C132.491 20.58 133.264 20.38 134.117 20.38C135.211 20.38 136.117 20.7 136.837 21.34C137.557 21.98 138.044 22.86 138.297 23.98L131.477 26.38L131.037 25.28L136.637 23.24L136.237 23.5C136.077 23.06 135.811 22.68 135.437 22.36C135.064 22.0267 134.577 21.86 133.977 21.86C133.471 21.86 133.017 21.9867 132.617 22.24C132.217 22.48 131.904 22.8133 131.677 23.24C131.451 23.6667 131.337 24.1533 131.337 24.7C131.337 25.2733 131.457 25.78 131.697 26.22C131.937 26.6467 132.264 26.9867 132.677 27.24C133.104 27.48 133.584 27.6 134.117 27.6C134.477 27.6 134.824 27.5333 135.157 27.4C135.504 27.2667 135.824 27.0933 136.117 26.88L136.977 28.26C136.564 28.54 136.097 28.7667 135.577 28.94C135.071 29.1133 134.571 29.2 134.077 29.2ZM142.288 20.72L142.448 22.74L142.368 22.42C142.634 21.8067 143.068 21.32 143.668 20.96C144.268 20.5867 144.961 20.4 145.748 20.4C146.534 20.4 147.174 20.6333 147.668 21.1C148.174 21.5533 148.434 22.1467 148.448 22.88V29H146.568V23.54C146.554 23.0867 146.421 22.72 146.168 22.44C145.928 22.1467 145.548 22 145.028 22C144.548 22 144.114 22.1333 143.728 22.4C143.341 22.6667 143.034 23.0333 142.808 23.5C142.594 23.9667 142.488 24.5067 142.488 25.12V29H140.628V20.72H142.288ZM152.483 17.08H154.343V20.76H156.623V22.22H154.343V29H152.483V22.22H150.963V20.76H152.483V17.08ZM162.71 29.2C161.763 29.2 160.95 29.0133 160.27 28.64C159.59 28.2533 159.063 27.7333 158.69 27.08C158.33 26.4133 158.15 25.6533 158.15 24.8C158.15 23.9867 158.357 23.2467 158.77 22.58C159.183 21.9133 159.737 21.38 160.43 20.98C161.123 20.58 161.897 20.38 162.75 20.38C163.843 20.38 164.75 20.7 165.47 21.34C166.19 21.98 166.677 22.86 166.93 23.98L160.11 26.38L159.67 25.28L165.27 23.24L164.87 23.5C164.71 23.06 164.443 22.68 164.07 22.36C163.697 22.0267 163.21 21.86 162.61 21.86C162.103 21.86 161.65 21.9867 161.25 22.24C160.85 22.48 160.537 22.8133 160.31 23.24C160.083 23.6667 159.97 24.1533 159.97 24.7C159.97 25.2733 160.09 25.78 160.33 26.22C160.57 26.6467 160.897 26.9867 161.31 27.24C161.737 27.48 162.217 27.6 162.75 27.6C163.11 27.6 163.457 27.5333 163.79 27.4C164.137 27.2667 164.457 27.0933 164.75 26.88L165.61 28.26C165.197 28.54 164.73 28.7667 164.21 28.94C163.703 29.1133 163.203 29.2 162.71 29.2ZM171.581 29.16C170.994 29.16 170.421 29.06 169.861 28.86C169.314 28.6467 168.861 28.3333 168.501 27.92L169.281 26.84C169.627 27.1733 169.981 27.4267 170.341 27.6C170.714 27.76 171.081 27.84 171.441 27.84C171.707 27.84 171.954 27.8067 172.181 27.74C172.407 27.6733 172.587 27.5667 172.721 27.42C172.867 27.26 172.941 27.0467 172.941 26.78C172.941 26.4867 172.841 26.2533 172.641 26.08C172.454 25.9067 172.207 25.7667 171.901 25.66C171.607 25.5533 171.294 25.4533 170.961 25.36C170.281 25.1333 169.761 24.82 169.401 24.42C169.041 24.02 168.861 23.5333 168.861 22.96C168.861 22.52 168.967 22.1133 169.181 21.74C169.407 21.3533 169.734 21.04 170.161 20.8C170.601 20.56 171.141 20.44 171.781 20.44C172.354 20.44 172.867 20.5133 173.321 20.66C173.774 20.7933 174.201 21.02 174.601 21.34L173.861 22.5C173.621 22.2467 173.334 22.06 173.001 21.94C172.667 21.82 172.367 21.7533 172.101 21.74C171.874 21.7267 171.654 21.76 171.441 21.84C171.241 21.92 171.074 22.0333 170.941 22.18C170.807 22.3267 170.741 22.5 170.741 22.7C170.741 22.98 170.834 23.2067 171.021 23.38C171.207 23.5533 171.447 23.6933 171.741 23.8C172.047 23.8933 172.347 23.9933 172.641 24.1C173.054 24.22 173.421 24.38 173.741 24.58C174.061 24.78 174.314 25.0267 174.501 25.32C174.701 25.6133 174.801 25.98 174.801 26.42C174.801 26.9133 174.681 27.3733 174.441 27.8C174.214 28.2133 173.861 28.5467 173.381 28.8C172.914 29.04 172.314 29.16 171.581 29.16Z" fill="#004B23"/>
<path d="M21.6426 8.00001C27.3092 8.00001 32.2861 13.9487 32.2861 21.8184C32.2861 29.6879 27.3092 35.6367 21.6426 35.6367C15.9761 35.6365 11.0001 29.6878 11 21.8184C11 13.9488 15.976 8.0002 21.6426 8.00001Z" stroke="#004B23" stroke-width="2"/>
<path d="M20.1302 26.5812L16.6108 23.0619L17.4907 22.182L20.1302 24.8215L25.795 19.1566L26.6749 20.0365L20.1302 26.5812Z" fill="#38B000"/>
</svg>
