<svg width="304" height="49" viewBox="0 0 304 49" fill="none" xmlns="http://www.w3.org/2000/svg">
<path d="M69.225 34.11C68.805 34.39 68.2333 34.705 67.51 35.055C66.7867 35.405 65.935 35.6967 64.955 35.93C63.9983 36.1633 62.9483 36.28 61.805 36.28C59.845 36.2567 58.0717 35.9067 56.485 35.23C54.9217 34.5533 53.5917 33.6317 52.495 32.465C51.3983 31.2983 50.5467 29.9567 49.94 28.44C49.3567 26.9 49.065 25.2667 49.065 23.54C49.065 21.65 49.3683 19.9117 49.975 18.325C50.605 16.715 51.48 15.3267 52.6 14.16C53.72 12.97 55.0383 12.0483 56.555 11.395C58.095 10.7417 59.775 10.415 61.595 10.415C63.1117 10.415 64.4883 10.625 65.725 11.045C66.9617 11.4417 68.0233 11.92 68.91 12.48L67.545 15.63C66.845 15.1633 65.9933 14.72 64.99 14.3C64.01 13.88 62.9133 13.67 61.7 13.67C60.4633 13.67 59.2967 13.915 58.2 14.405C57.1033 14.895 56.135 15.5833 55.295 16.47C54.455 17.3567 53.79 18.395 53.3 19.585C52.8333 20.7517 52.6 22.0117 52.6 23.365C52.6 24.7417 52.81 26.025 53.23 27.215C53.6733 28.3817 54.2917 29.3967 55.085 30.26C55.9017 31.1233 56.8817 31.8 58.025 32.29C59.1683 32.78 60.4517 33.025 61.875 33.025C63.1583 33.025 64.3017 32.8267 65.305 32.43C66.3083 32.0333 67.1367 31.59 67.79 31.1L69.225 34.11ZM80.8568 36.35C79.2001 36.35 77.7768 36.0233 76.5868 35.37C75.3968 34.6933 74.4751 33.7833 73.8218 32.64C73.1918 31.4733 72.8768 30.1433 72.8768 28.65C72.8768 27.2267 73.2384 25.9317 73.9618 24.765C74.6851 23.5983 75.6534 22.665 76.8668 21.965C78.0801 21.265 79.4334 20.915 80.9268 20.915C82.8401 20.915 84.4268 21.475 85.6868 22.595C86.9468 23.715 87.7984 25.255 88.2418 27.215L76.3068 31.415L75.5368 29.49L85.3368 25.92L84.6368 26.375C84.3568 25.605 83.8901 24.94 83.2368 24.38C82.5834 23.7967 81.7318 23.505 80.6818 23.505C79.7951 23.505 79.0018 23.7267 78.3018 24.17C77.6018 24.59 77.0534 25.1733 76.6568 25.92C76.2601 26.6667 76.0618 27.5183 76.0618 28.475C76.0618 29.4783 76.2718 30.365 76.6918 31.135C77.1118 31.8817 77.6834 32.4767 78.4068 32.92C79.1534 33.34 79.9934 33.55 80.9268 33.55C81.5568 33.55 82.1634 33.4333 82.7468 33.2C83.3534 32.9667 83.9134 32.6633 84.4268 32.29L85.9318 34.705C85.2084 35.195 84.3918 35.5917 83.4818 35.895C82.5951 36.1983 81.7201 36.35 80.8568 36.35ZM95.2254 21.51L95.5404 25.71L95.3654 25.15C95.7387 24.2633 96.2754 23.5167 96.9754 22.91C97.6987 22.28 98.4454 21.8017 99.2154 21.475C100.009 21.125 100.697 20.95 101.28 20.95L101.105 24.17C100.009 24.1 99.0404 24.31 98.2004 24.8C97.3837 25.29 96.7304 25.9433 96.2404 26.76C95.7737 27.5767 95.5404 28.4517 95.5404 29.385V36H92.3204V21.51H95.2254ZM103.604 28.615C103.604 27.1683 103.943 25.8617 104.619 24.695C105.319 23.5283 106.276 22.6067 107.489 21.93C108.703 21.2533 110.079 20.915 111.619 20.915C113.206 20.915 114.594 21.2533 115.784 21.93C116.974 22.6067 117.896 23.5283 118.549 24.695C119.203 25.8617 119.529 27.1683 119.529 28.615C119.529 30.0617 119.203 31.38 118.549 32.57C117.896 33.7367 116.963 34.6583 115.749 35.335C114.559 36.0117 113.171 36.35 111.584 36.35C110.044 36.35 108.668 36.035 107.454 35.405C106.264 34.7517 105.319 33.8533 104.619 32.71C103.943 31.5433 103.604 30.1783 103.604 28.615ZM106.859 28.65C106.859 29.5833 107.069 30.435 107.489 31.205C107.909 31.9517 108.469 32.5467 109.169 32.99C109.893 33.4333 110.686 33.655 111.549 33.655C112.459 33.655 113.264 33.4333 113.964 32.99C114.688 32.5467 115.248 31.9517 115.644 31.205C116.041 30.435 116.239 29.5833 116.239 28.65C116.239 27.7167 116.041 26.8767 115.644 26.13C115.248 25.36 114.688 24.7533 113.964 24.31C113.264 23.8433 112.459 23.61 111.549 23.61C110.663 23.61 109.858 23.8433 109.134 24.31C108.434 24.7767 107.874 25.395 107.454 26.165C107.058 26.9117 106.859 27.74 106.859 28.65ZM131.497 10.695C133.34 10.695 134.915 11.01 136.222 11.64C137.528 12.2467 138.532 13.1333 139.232 14.3C139.955 15.4667 140.317 16.8783 140.317 18.535C140.317 19.5383 140.165 20.53 139.862 21.51C139.558 22.4667 139.068 23.3417 138.392 24.135C137.738 24.905 136.875 25.5233 135.802 25.99C134.728 26.4567 133.422 26.69 131.882 26.69H128.137V36H124.742V10.695H131.497ZM131.847 23.435C132.85 23.435 133.678 23.2717 134.332 22.945C134.985 22.6183 135.498 22.21 135.872 21.72C136.245 21.2067 136.513 20.67 136.677 20.11C136.84 19.55 136.922 19.0483 136.922 18.605C136.922 18.0917 136.84 17.5667 136.677 17.03C136.513 16.47 136.233 15.9683 135.837 15.525C135.463 15.0583 134.962 14.685 134.332 14.405C133.725 14.1017 132.967 13.95 132.057 13.95H128.137V23.435H131.847ZM151.472 36.35C149.815 36.35 148.392 36.0233 147.202 35.37C146.012 34.6933 145.09 33.7833 144.437 32.64C143.807 31.4733 143.492 30.1433 143.492 28.65C143.492 27.2267 143.854 25.9317 144.577 24.765C145.3 23.5983 146.269 22.665 147.482 21.965C148.695 21.265 150.049 20.915 151.542 20.915C153.455 20.915 155.042 21.475 156.302 22.595C157.562 23.715 158.414 25.255 158.857 27.215L146.922 31.415L146.152 29.49L155.952 25.92L155.252 26.375C154.972 25.605 154.505 24.94 153.852 24.38C153.199 23.7967 152.347 23.505 151.297 23.505C150.41 23.505 149.617 23.7267 148.917 24.17C148.217 24.59 147.669 25.1733 147.272 25.92C146.875 26.6667 146.677 27.5183 146.677 28.475C146.677 29.4783 146.887 30.365 147.307 31.135C147.727 31.8817 148.299 32.4767 149.022 32.92C149.769 33.34 150.609 33.55 151.542 33.55C152.172 33.55 152.779 33.4333 153.362 33.2C153.969 32.9667 154.529 32.6633 155.042 32.29L156.547 34.705C155.824 35.195 155.007 35.5917 154.097 35.895C153.21 36.1983 152.335 36.35 151.472 36.35ZM165.841 21.51L166.121 25.045L165.981 24.485C166.447 23.4117 167.206 22.56 168.256 21.93C169.306 21.2767 170.519 20.95 171.896 20.95C173.272 20.95 174.392 21.3583 175.256 22.175C176.142 22.9683 176.597 24.0067 176.621 25.29V36H173.331V26.445C173.307 25.6517 173.074 25.01 172.631 24.52C172.211 24.0067 171.546 23.75 170.636 23.75C169.796 23.75 169.037 23.9833 168.361 24.45C167.684 24.9167 167.147 25.5583 166.751 26.375C166.377 27.1917 166.191 28.1367 166.191 29.21V36H162.936V21.51H165.841ZM188.161 36.35C186.831 36.35 185.618 36.035 184.521 35.405C183.448 34.7517 182.596 33.8417 181.966 32.675C181.336 31.485 181.021 30.12 181.021 28.58C181.021 26.97 181.348 25.5933 182.001 24.45C182.678 23.3067 183.588 22.4317 184.731 21.825C185.875 21.2183 187.158 20.915 188.581 20.915C189.725 20.915 190.81 21.16 191.836 21.65C192.886 22.14 193.703 22.8167 194.286 23.68L194.146 24.835V8.91H197.366V36H194.111V32.395L194.461 33.305C193.785 34.1917 192.91 34.9267 191.836 35.51C190.763 36.07 189.538 36.35 188.161 36.35ZM189.176 33.585C190.04 33.585 190.81 33.4333 191.486 33.13C192.163 32.8033 192.723 32.36 193.166 31.8C193.61 31.24 193.925 30.575 194.111 29.805V27.075C193.925 26.375 193.586 25.7683 193.096 25.255C192.63 24.7183 192.058 24.2983 191.381 23.995C190.728 23.6683 189.993 23.505 189.176 23.505C188.29 23.505 187.473 23.7267 186.726 24.17C186.003 24.59 185.42 25.1733 184.976 25.92C184.533 26.6667 184.311 27.53 184.311 28.51C184.311 29.4667 184.533 30.33 184.976 31.1C185.42 31.8467 186.015 32.4533 186.761 32.92C187.508 33.3633 188.313 33.585 189.176 33.585ZM203.028 21.51H206.283V36H203.028V21.51ZM202.783 16.26C202.783 15.7467 202.982 15.315 203.378 14.965C203.798 14.615 204.253 14.44 204.743 14.44C205.233 14.44 205.665 14.615 206.038 14.965C206.435 15.315 206.633 15.7467 206.633 16.26C206.633 16.7967 206.435 17.24 206.038 17.59C205.665 17.9167 205.233 18.08 204.743 18.08C204.253 18.08 203.798 17.905 203.378 17.555C202.982 17.205 202.783 16.7733 202.783 16.26ZM218.635 36.35C216.978 36.35 215.555 36.0233 214.365 35.37C213.175 34.6933 212.253 33.7833 211.6 32.64C210.97 31.4733 210.655 30.1433 210.655 28.65C210.655 27.2267 211.017 25.9317 211.74 24.765C212.463 23.5983 213.432 22.665 214.645 21.965C215.858 21.265 217.212 20.915 218.705 20.915C220.618 20.915 222.205 21.475 223.465 22.595C224.725 23.715 225.577 25.255 226.02 27.215L214.085 31.415L213.315 29.49L223.115 25.92L222.415 26.375C222.135 25.605 221.668 24.94 221.015 24.38C220.362 23.7967 219.51 23.505 218.46 23.505C217.573 23.505 216.78 23.7267 216.08 24.17C215.38 24.59 214.832 25.1733 214.435 25.92C214.038 26.6667 213.84 27.5183 213.84 28.475C213.84 29.4783 214.05 30.365 214.47 31.135C214.89 31.8817 215.462 32.4767 216.185 32.92C216.932 33.34 217.772 33.55 218.705 33.55C219.335 33.55 219.942 33.4333 220.525 33.2C221.132 32.9667 221.692 32.6633 222.205 32.29L223.71 34.705C222.987 35.195 222.17 35.5917 221.26 35.895C220.373 36.1983 219.498 36.35 218.635 36.35ZM233.004 21.51L233.284 25.045L233.144 24.485C233.61 23.4117 234.369 22.56 235.419 21.93C236.469 21.2767 237.682 20.95 239.059 20.95C240.435 20.95 241.555 21.3583 242.419 22.175C243.305 22.9683 243.76 24.0067 243.784 25.29V36H240.494V26.445C240.47 25.6517 240.237 25.01 239.794 24.52C239.374 24.0067 238.709 23.75 237.799 23.75C236.959 23.75 236.2 23.9833 235.524 24.45C234.847 24.9167 234.31 25.5583 233.914 26.375C233.54 27.1917 233.354 28.1367 233.354 29.21V36H230.099V21.51H233.004ZM250.844 15.14H254.099V21.58H258.089V24.135H254.099V36H250.844V24.135H248.184V21.58H250.844V15.14ZM268.743 36.35C267.086 36.35 265.663 36.0233 264.473 35.37C263.283 34.6933 262.361 33.7833 261.708 32.64C261.078 31.4733 260.763 30.1433 260.763 28.65C260.763 27.2267 261.124 25.9317 261.848 24.765C262.571 23.5983 263.539 22.665 264.753 21.965C265.966 21.265 267.319 20.915 268.813 20.915C270.726 20.915 272.313 21.475 273.573 22.595C274.833 23.715 275.684 25.255 276.128 27.215L264.193 31.415L263.423 29.49L273.223 25.92L272.523 26.375C272.243 25.605 271.776 24.94 271.123 24.38C270.469 23.7967 269.618 23.505 268.568 23.505C267.681 23.505 266.888 23.7267 266.188 24.17C265.488 24.59 264.939 25.1733 264.543 25.92C264.146 26.6667 263.948 27.5183 263.948 28.475C263.948 29.4783 264.158 30.365 264.578 31.135C264.998 31.8817 265.569 32.4767 266.293 32.92C267.039 33.34 267.879 33.55 268.813 33.55C269.443 33.55 270.049 33.4333 270.633 33.2C271.239 32.9667 271.799 32.6633 272.313 32.29L273.818 34.705C273.094 35.195 272.278 35.5917 271.368 35.895C270.481 36.1983 269.606 36.35 268.743 36.35ZM284.266 36.28C283.239 36.28 282.236 36.105 281.256 35.755C280.299 35.3817 279.506 34.8333 278.876 34.11L280.241 32.22C280.848 32.8033 281.466 33.2467 282.096 33.55C282.749 33.83 283.391 33.97 284.021 33.97C284.488 33.97 284.919 33.9117 285.316 33.795C285.713 33.6783 286.028 33.4917 286.261 33.235C286.518 32.955 286.646 32.5817 286.646 32.115C286.646 31.6017 286.471 31.1933 286.121 30.89C285.794 30.5867 285.363 30.3417 284.826 30.155C284.313 29.9683 283.764 29.7933 283.181 29.63C281.991 29.2333 281.081 28.685 280.451 27.985C279.821 27.285 279.506 26.4333 279.506 25.43C279.506 24.66 279.693 23.9483 280.066 23.295C280.463 22.6183 281.034 22.07 281.781 21.65C282.551 21.23 283.496 21.02 284.616 21.02C285.619 21.02 286.518 21.1483 287.311 21.405C288.104 21.6383 288.851 22.035 289.551 22.595L288.256 24.625C287.836 24.1817 287.334 23.855 286.751 23.645C286.168 23.435 285.643 23.3183 285.176 23.295C284.779 23.2717 284.394 23.33 284.021 23.47C283.671 23.61 283.379 23.8083 283.146 24.065C282.913 24.3217 282.796 24.625 282.796 24.975C282.796 25.465 282.959 25.8617 283.286 26.165C283.613 26.4683 284.033 26.7133 284.546 26.9C285.083 27.0633 285.608 27.2383 286.121 27.425C286.844 27.635 287.486 27.915 288.046 28.265C288.606 28.615 289.049 29.0467 289.376 29.56C289.726 30.0733 289.901 30.715 289.901 31.485C289.901 32.3483 289.691 33.1533 289.271 33.9C288.874 34.6233 288.256 35.2067 287.416 35.65C286.599 36.07 285.549 36.28 284.266 36.28Z" fill="#004B23"/>
<path d="M22.6426 3C31.6228 3 39.2859 12.3672 39.2861 24.4541C39.2861 36.5412 31.6229 45.9092 22.6426 45.9092C13.6623 45.909 6 36.5411 6 24.4541C6.00019 12.3673 13.6624 3.00019 22.6426 3Z" stroke="#004B23" stroke-width="2"/>
<path d="M20.3505 31.6721L15.0176 26.3391L16.3508 25.0059L20.3505 29.0056L28.9347 20.4214L30.268 21.7547L20.3505 31.6721Z" fill="#38B000"/>
</svg>
