<svg width="142" height="45" viewBox="0 0 142 45" fill="none" xmlns="http://www.w3.org/2000/svg">
<path d="M16.6426 8C22.3092 8 27.2861 13.9487 27.2861 21.8184C27.2861 29.6879 22.3092 35.6367 16.6426 35.6367C10.9761 35.6365 6.00007 29.6878 6 21.8184C6 13.9488 10.976 8.0002 16.6426 8Z" stroke="#004B23" stroke-width="2"/>
<path d="M15.1302 26.5812L11.6108 23.0619L12.4907 22.182L15.1302 24.8215L20.795 19.1566L21.6749 20.0365L15.1302 26.5812Z" fill="#38B000"/>
<path d="M43.7 15.92C43.46 16.08 43.1333 16.26 42.72 16.46C42.3067 16.66 41.82 16.8267 41.26 16.96C40.7133 17.0933 40.1133 17.16 39.46 17.16C38.34 17.1467 37.3267 16.9467 36.42 16.56C35.5267 16.1733 34.7667 15.6467 34.14 14.98C33.5133 14.3133 33.0267 13.5467 32.68 12.68C32.3467 11.8 32.18 10.8667 32.18 9.88C32.18 8.8 32.3533 7.80667 32.7 6.9C33.06 5.98 33.56 5.18667 34.2 4.52C34.84 3.84 35.5933 3.31333 36.46 2.94C37.34 2.56667 38.3 2.38 39.34 2.38C40.2067 2.38 40.9933 2.5 41.7 2.74C42.4067 2.96667 43.0133 3.24 43.52 3.56L42.74 5.36C42.34 5.09333 41.8533 4.84 41.28 4.6C40.72 4.36 40.0933 4.24 39.4 4.24C38.6933 4.24 38.0267 4.38 37.4 4.66C36.7733 4.94 36.22 5.33333 35.74 5.84C35.26 6.34667 34.88 6.94 34.6 7.62C34.3333 8.28667 34.2 9.00667 34.2 9.78C34.2 10.5667 34.32 11.3 34.56 11.98C34.8133 12.6467 35.1667 13.2267 35.62 13.72C36.0867 14.2133 36.6467 14.6 37.3 14.88C37.9533 15.16 38.6867 15.3 39.5 15.3C40.2333 15.3 40.8867 15.1867 41.46 14.96C42.0333 14.7333 42.5067 14.48 42.88 14.2L43.7 15.92ZM50.3467 17.2C49.4001 17.2 48.5867 17.0133 47.9067 16.64C47.2267 16.2533 46.7001 15.7333 46.3267 15.08C45.9667 14.4133 45.7867 13.6533 45.7867 12.8C45.7867 11.9867 45.9934 11.2467 46.4067 10.58C46.8201 9.91333 47.3734 9.38 48.0667 8.98C48.7601 8.58 49.5334 8.38 50.3867 8.38C51.4801 8.38 52.3867 8.7 53.1067 9.34C53.8267 9.98 54.3134 10.86 54.5667 11.98L47.7467 14.38L47.3067 13.28L52.9067 11.24L52.5067 11.5C52.3467 11.06 52.0801 10.68 51.7067 10.36C51.3334 10.0267 50.8467 9.86 50.2467 9.86C49.7401 9.86 49.2867 9.98667 48.8867 10.24C48.4867 10.48 48.1734 10.8133 47.9467 11.24C47.7201 11.6667 47.6067 12.1533 47.6067 12.7C47.6067 13.2733 47.7267 13.78 47.9667 14.22C48.2067 14.6467 48.5334 14.9867 48.9467 15.24C49.3734 15.48 49.8534 15.6 50.3867 15.6C50.7467 15.6 51.0934 15.5333 51.4267 15.4C51.7734 15.2667 52.0934 15.0933 52.3867 14.88L53.2467 16.26C52.8334 16.54 52.3667 16.7667 51.8467 16.94C51.3401 17.1133 50.8401 17.2 50.3467 17.2ZM58.5573 8.72L58.7373 11.12L58.6373 10.8C58.8507 10.2933 59.1573 9.86667 59.5573 9.52C59.9707 9.16 60.3973 8.88667 60.8373 8.7C61.2907 8.5 61.684 8.4 62.0173 8.4L61.9173 10.24C61.2907 10.2 60.7373 10.32 60.2573 10.6C59.7907 10.88 59.4173 11.2533 59.1373 11.72C58.8707 12.1867 58.7373 12.6867 58.7373 13.22V17H56.8973V8.72H58.5573ZM63.3453 12.78C63.3453 11.9533 63.5386 11.2067 63.9253 10.54C64.3253 9.87333 64.872 9.34667 65.5653 8.96C66.2586 8.57333 67.0453 8.38 67.9253 8.38C68.832 8.38 69.6253 8.57333 70.3053 8.96C70.9853 9.34667 71.512 9.87333 71.8853 10.54C72.2586 11.2067 72.4453 11.9533 72.4453 12.78C72.4453 13.6067 72.2586 14.36 71.8853 15.04C71.512 15.7067 70.9786 16.2333 70.2853 16.62C69.6053 17.0067 68.812 17.2 67.9053 17.2C67.0253 17.2 66.2386 17.02 65.5453 16.66C64.8653 16.2867 64.3253 15.7733 63.9253 15.12C63.5386 14.4533 63.3453 13.6733 63.3453 12.78ZM65.2053 12.8C65.2053 13.3333 65.3253 13.82 65.5653 14.26C65.8053 14.6867 66.1253 15.0267 66.5253 15.28C66.9386 15.5333 67.392 15.66 67.8853 15.66C68.4053 15.66 68.8653 15.5333 69.2653 15.28C69.6786 15.0267 69.9986 14.6867 70.2253 14.26C70.452 13.82 70.5653 13.3333 70.5653 12.8C70.5653 12.2667 70.452 11.7867 70.2253 11.36C69.9986 10.92 69.6786 10.5733 69.2653 10.32C68.8653 10.0533 68.4053 9.92 67.8853 9.92C67.3786 9.92 66.9186 10.0533 66.5053 10.32C66.1053 10.5867 65.7853 10.94 65.5453 11.38C65.3186 11.8067 65.2053 12.28 65.2053 12.8ZM36.94 22.54C37.9933 22.54 38.8933 22.72 39.64 23.08C40.3867 23.4267 40.96 23.9333 41.36 24.6C41.7733 25.2667 41.98 26.0733 41.98 27.02C41.98 27.5933 41.8933 28.16 41.72 28.72C41.5467 29.2667 41.2667 29.7667 40.88 30.22C40.5067 30.66 40.0133 31.0133 39.4 31.28C38.7867 31.5467 38.04 31.68 37.16 31.68H35.02V37H33.08V22.54H36.94ZM37.14 29.82C37.7133 29.82 38.1867 29.7267 38.56 29.54C38.9333 29.3533 39.2267 29.12 39.44 28.84C39.6533 28.5467 39.8067 28.24 39.9 27.92C39.9933 27.6 40.04 27.3133 40.04 27.06C40.04 26.7667 39.9933 26.4667 39.9 26.16C39.8067 25.84 39.6467 25.5533 39.42 25.3C39.2067 25.0333 38.92 24.82 38.56 24.66C38.2133 24.4867 37.78 24.4 37.26 24.4H35.02V29.82H37.14ZM48.3545 37.2C47.4079 37.2 46.5945 37.0133 45.9145 36.64C45.2345 36.2533 44.7079 35.7333 44.3345 35.08C43.9745 34.4133 43.7945 33.6533 43.7945 32.8C43.7945 31.9867 44.0012 31.2467 44.4145 30.58C44.8279 29.9133 45.3812 29.38 46.0745 28.98C46.7679 28.58 47.5412 28.38 48.3945 28.38C49.4879 28.38 50.3945 28.7 51.1145 29.34C51.8345 29.98 52.3212 30.86 52.5745 31.98L45.7545 34.38L45.3145 33.28L50.9145 31.24L50.5145 31.5C50.3545 31.06 50.0879 30.68 49.7145 30.36C49.3412 30.0267 48.8545 29.86 48.2545 29.86C47.7479 29.86 47.2945 29.9867 46.8945 30.24C46.4945 30.48 46.1812 30.8133 45.9545 31.24C45.7279 31.6667 45.6145 32.1533 45.6145 32.7C45.6145 33.2733 45.7345 33.78 45.9745 34.22C46.2145 34.6467 46.5412 34.9867 46.9545 35.24C47.3812 35.48 47.8612 35.6 48.3945 35.6C48.7545 35.6 49.1012 35.5333 49.4345 35.4C49.7812 35.2667 50.1012 35.0933 50.3945 34.88L51.2545 36.26C50.8412 36.54 50.3745 36.7667 49.8545 36.94C49.3479 37.1133 48.8479 37.2 48.3545 37.2ZM56.5652 28.72L56.7252 30.74L56.6452 30.42C56.9118 29.8067 57.3452 29.32 57.9452 28.96C58.5452 28.5867 59.2385 28.4 60.0252 28.4C60.8118 28.4 61.4518 28.6333 61.9452 29.1C62.4518 29.5533 62.7118 30.1467 62.7252 30.88V37H60.8452V31.54C60.8318 31.0867 60.6985 30.72 60.4452 30.44C60.2052 30.1467 59.8252 30 59.3052 30C58.8252 30 58.3918 30.1333 58.0052 30.4C57.6185 30.6667 57.3118 31.0333 57.0852 31.5C56.8718 31.9667 56.7652 32.5067 56.7652 33.12V37H54.9052V28.72H56.5652ZM69.3198 37.2C68.5598 37.2 67.8665 37.02 67.2398 36.66C66.6265 36.2867 66.1398 35.7667 65.7798 35.1C65.4198 34.42 65.2398 33.64 65.2398 32.76C65.2398 31.84 65.4265 31.0533 65.7998 30.4C66.1865 29.7467 66.7065 29.2467 67.3598 28.9C68.0132 28.5533 68.7465 28.38 69.5598 28.38C70.2132 28.38 70.8332 28.52 71.4198 28.8C72.0198 29.08 72.4865 29.4667 72.8198 29.96L72.7398 30.62V21.52H74.5798V37H72.7198V34.94L72.9198 35.46C72.5332 35.9667 72.0332 36.3867 71.4198 36.72C70.8065 37.04 70.1065 37.2 69.3198 37.2ZM69.8998 35.62C70.3932 35.62 70.8332 35.5333 71.2198 35.36C71.6065 35.1733 71.9265 34.92 72.1798 34.6C72.4332 34.28 72.6132 33.9 72.7198 33.46V31.9C72.6132 31.5 72.4198 31.1533 72.1398 30.86C71.8732 30.5533 71.5465 30.3133 71.1598 30.14C70.7865 29.9533 70.3665 29.86 69.8998 29.86C69.3932 29.86 68.9265 29.9867 68.4998 30.24C68.0865 30.48 67.7532 30.8133 67.4998 31.24C67.2465 31.6667 67.1198 32.16 67.1198 32.72C67.1198 33.2667 67.2465 33.76 67.4998 34.2C67.7532 34.6267 68.0932 34.9733 68.5198 35.24C68.9465 35.4933 69.4065 35.62 69.8998 35.62ZM77.8153 28.72H79.6753V37H77.8153V28.72ZM77.6753 25.72C77.6753 25.4267 77.7886 25.18 78.0153 24.98C78.2553 24.78 78.5153 24.68 78.7953 24.68C79.0753 24.68 79.322 24.78 79.5353 24.98C79.762 25.18 79.8753 25.4267 79.8753 25.72C79.8753 26.0267 79.762 26.28 79.5353 26.48C79.322 26.6667 79.0753 26.76 78.7953 26.76C78.5153 26.76 78.2553 26.66 78.0153 26.46C77.7886 26.26 77.6753 26.0133 77.6753 25.72ZM86.7334 37.2C85.7868 37.2 84.9734 37.0133 84.2934 36.64C83.6134 36.2533 83.0868 35.7333 82.7134 35.08C82.3534 34.4133 82.1734 33.6533 82.1734 32.8C82.1734 31.9867 82.3801 31.2467 82.7934 30.58C83.2068 29.9133 83.7601 29.38 84.4534 28.98C85.1468 28.58 85.9201 28.38 86.7734 28.38C87.8668 28.38 88.7734 28.7 89.4934 29.34C90.2134 29.98 90.7001 30.86 90.9534 31.98L84.1334 34.38L83.6934 33.28L89.2934 31.24L88.8934 31.5C88.7334 31.06 88.4668 30.68 88.0934 30.36C87.7201 30.0267 87.2334 29.86 86.6334 29.86C86.1268 29.86 85.6734 29.9867 85.2734 30.24C84.8734 30.48 84.5601 30.8133 84.3334 31.24C84.1068 31.6667 83.9934 32.1533 83.9934 32.7C83.9934 33.2733 84.1134 33.78 84.3534 34.22C84.5934 34.6467 84.9201 34.9867 85.3334 35.24C85.7601 35.48 86.2401 35.6 86.7734 35.6C87.1334 35.6 87.4801 35.5333 87.8134 35.4C88.1601 35.2667 88.4801 35.0933 88.7734 34.88L89.6334 36.26C89.2201 36.54 88.7534 36.7667 88.2334 36.94C87.7268 37.1133 87.2268 37.2 86.7334 37.2ZM94.9441 28.72L95.1041 30.74L95.0241 30.42C95.2907 29.8067 95.7241 29.32 96.3241 28.96C96.9241 28.5867 97.6174 28.4 98.4041 28.4C99.1907 28.4 99.8307 28.6333 100.324 29.1C100.831 29.5533 101.091 30.1467 101.104 30.88V37H99.2241V31.54C99.2107 31.0867 99.0774 30.72 98.8241 30.44C98.5841 30.1467 98.2041 30 97.6841 30C97.2041 30 96.7707 30.1333 96.3841 30.4C95.9974 30.6667 95.6907 31.0333 95.4641 31.5C95.2507 31.9667 95.1441 32.5067 95.1441 33.12V37H93.2841V28.72H94.9441ZM105.139 25.08H106.999V28.76H109.279V30.22H106.999V37H105.139V30.22H103.619V28.76H105.139V25.08ZM115.366 37.2C114.42 37.2 113.606 37.0133 112.926 36.64C112.246 36.2533 111.72 35.7333 111.346 35.08C110.986 34.4133 110.806 33.6533 110.806 32.8C110.806 31.9867 111.013 31.2467 111.426 30.58C111.84 29.9133 112.393 29.38 113.086 28.98C113.78 28.58 114.553 28.38 115.406 28.38C116.5 28.38 117.406 28.7 118.126 29.34C118.846 29.98 119.333 30.86 119.586 31.98L112.766 34.38L112.326 33.28L117.926 31.24L117.526 31.5C117.366 31.06 117.1 30.68 116.726 30.36C116.353 30.0267 115.866 29.86 115.266 29.86C114.76 29.86 114.306 29.9867 113.906 30.24C113.506 30.48 113.193 30.8133 112.966 31.24C112.74 31.6667 112.626 32.1533 112.626 32.7C112.626 33.2733 112.746 33.78 112.986 34.22C113.226 34.6467 113.553 34.9867 113.966 35.24C114.393 35.48 114.873 35.6 115.406 35.6C115.766 35.6 116.113 35.5333 116.446 35.4C116.793 35.2667 117.113 35.0933 117.406 34.88L118.266 36.26C117.853 36.54 117.386 36.7667 116.866 36.94C116.36 37.1133 115.86 37.2 115.366 37.2ZM124.237 37.16C123.65 37.16 123.077 37.06 122.517 36.86C121.97 36.6467 121.517 36.3333 121.157 35.92L121.937 34.84C122.284 35.1733 122.637 35.4267 122.997 35.6C123.37 35.76 123.737 35.84 124.097 35.84C124.364 35.84 124.61 35.8067 124.837 35.74C125.064 35.6733 125.244 35.5667 125.377 35.42C125.524 35.26 125.597 35.0467 125.597 34.78C125.597 34.4867 125.497 34.2533 125.297 34.08C125.11 33.9067 124.864 33.7667 124.557 33.66C124.264 33.5533 123.95 33.4533 123.617 33.36C122.937 33.1333 122.417 32.82 122.057 32.42C121.697 32.02 121.517 31.5333 121.517 30.96C121.517 30.52 121.624 30.1133 121.837 29.74C122.064 29.3533 122.39 29.04 122.817 28.8C123.257 28.56 123.797 28.44 124.437 28.44C125.01 28.44 125.524 28.5133 125.977 28.66C126.43 28.7933 126.857 29.02 127.257 29.34L126.517 30.5C126.277 30.2467 125.99 30.06 125.657 29.94C125.324 29.82 125.024 29.7533 124.757 29.74C124.53 29.7267 124.31 29.76 124.097 29.84C123.897 29.92 123.73 30.0333 123.597 30.18C123.464 30.3267 123.397 30.5 123.397 30.7C123.397 30.98 123.49 31.2067 123.677 31.38C123.864 31.5533 124.104 31.6933 124.397 31.8C124.704 31.8933 125.004 31.9933 125.297 32.1C125.71 32.22 126.077 32.38 126.397 32.58C126.717 32.78 126.97 33.0267 127.157 33.32C127.357 33.6133 127.457 33.98 127.457 34.42C127.457 34.9133 127.337 35.3733 127.097 35.8C126.87 36.2133 126.517 36.5467 126.037 36.8C125.57 37.04 124.97 37.16 124.237 37.16Z" fill="#004B23"/>
</svg>
