<svg width="17" height="17" viewBox="0 0 17 17" fill="none" xmlns="http://www.w3.org/2000/svg">
<path d="M14.875 6.375H10.625V2.125C10.625 1.56141 10.4011 1.02091 10.0026 0.622398C9.60409 0.223883 9.06359 0 8.5 0C7.93641 0 7.39591 0.223883 6.9974 0.622398C6.59888 1.02091 6.375 1.56141 6.375 2.125L6.45044 6.375H2.125C1.56141 6.375 1.02091 6.59888 0.622398 6.9974C0.223883 7.39591 0 7.93641 0 8.5C0 9.06359 0.223883 9.60409 0.622398 10.0026C1.02091 10.4011 1.56141 10.625 2.125 10.625L6.45044 10.5496L6.375 14.875C6.375 15.4386 6.59888 15.9791 6.9974 16.3776C7.39591 16.7761 7.93641 17 8.5 17C9.06359 17 9.60409 16.7761 10.0026 16.3776C10.4011 15.9791 10.625 15.4386 10.625 14.875V10.5496L14.875 10.625C15.4386 10.625 15.9791 10.4011 16.3776 10.0026C16.7761 9.60409 17 9.06359 17 8.5C17 7.93641 16.7761 7.39591 16.3776 6.9974C15.9791 6.59888 15.4386 6.375 14.875 6.375Z" fill="#38B000"/>
</svg>
